<svg width="145" height="16" viewBox="0 0 145 16" fill="none" xmlns="http://www.w3.org/2000/svg">
<path d="M0.89 15V1.224H4.334C6.462 1.224 8.079 1.819 9.185 3.009C10.291 4.185 10.844 5.865 10.844 8.049C10.844 10.247 10.291 11.955 9.185 13.173C8.093 14.391 6.504 15 4.418 15H0.89ZM2.633 13.572H4.208C5.818 13.572 7.022 13.089 7.82 12.123C8.632 11.143 9.038 9.785 9.038 8.049C9.038 6.313 8.632 4.983 7.82 4.059C7.022 3.121 5.818 2.652 4.208 2.652H2.633V13.572ZM13.8099 15V1.224H21.7479V2.694H15.5529V7.02H20.7819V8.511H15.5529V13.509H21.9579V15H13.8099ZM27.4041 15L22.9941 1.224H24.8631L27.0681 8.658C27.3201 9.47 27.5371 10.233 27.7191 10.947C27.9151 11.647 28.1461 12.403 28.4121 13.215H28.4961C28.7481 12.403 28.9721 11.647 29.1681 10.947C29.3641 10.233 29.5811 9.47 29.8191 8.658L32.0241 1.224H33.8091L29.4411 15H27.4041ZM40.5687 15.252C39.4207 15.252 38.3987 14.958 37.5027 14.37C36.6207 13.782 35.9277 12.949 35.4237 11.871C34.9337 10.793 34.6887 9.519 34.6887 8.049C34.6887 6.579 34.9337 5.319 35.4237 4.269C35.9277 3.205 36.6207 2.393 37.5027 1.833C38.3987 1.259 39.4207 0.971999 40.5687 0.971999C41.7307 0.971999 42.7527 1.259 43.6347 1.833C44.5167 2.393 45.2097 3.205 45.7137 4.269C46.2177 5.319 46.4697 6.579 46.4697 8.049C46.4697 9.519 46.2177 10.793 45.7137 11.871C45.2097 12.949 44.5167 13.782 43.6347 14.37C42.7527 14.958 41.7307 15.252 40.5687 15.252ZM40.5687 13.719C41.3947 13.719 42.1087 13.488 42.7107 13.026C43.3267 12.55 43.8027 11.892 44.1387 11.052C44.4747 10.198 44.6427 9.197 44.6427 8.049C44.6427 6.341 44.2717 4.99 43.5297 3.996C42.7877 3.002 41.8007 2.505 40.5687 2.505C39.3367 2.505 38.3497 3.002 37.6077 3.996C36.8657 4.99 36.4947 6.341 36.4947 8.049C36.4947 9.197 36.6627 10.198 36.9987 11.052C37.3347 11.892 37.8107 12.55 38.4267 13.026C39.0427 13.488 39.7567 13.719 40.5687 13.719ZM49.432 15V1.224H53.737C54.675 1.224 55.508 1.35 56.236 1.602C56.964 1.84 57.531 2.246 57.937 2.82C58.357 3.38 58.567 4.136 58.567 5.088C58.567 6.152 58.287 7.013 57.727 7.671C57.167 8.315 56.411 8.756 55.459 8.994L58.966 15H56.992L53.674 9.183H51.175V15H49.432ZM51.175 7.755H53.485C54.563 7.755 55.389 7.538 55.963 7.104C56.537 6.656 56.824 5.984 56.824 5.088C56.824 4.178 56.537 3.541 55.963 3.177C55.389 2.813 54.563 2.631 53.485 2.631H51.175V7.755ZM63.679 7.293L63.028 9.393H67.165L66.514 7.293C66.262 6.523 66.024 5.76 65.8 5.004C65.576 4.234 65.352 3.45 65.128 2.652H65.044C64.834 3.45 64.617 4.234 64.393 5.004C64.169 5.76 63.931 6.523 63.679 7.293ZM59.479 15L64.141 1.224H66.115L70.777 15H68.908L67.606 10.8H62.587L61.264 15H59.479ZM82.015 15.252C80.867 15.252 79.845 14.958 78.949 14.37C78.067 13.782 77.374 12.949 76.87 11.871C76.38 10.793 76.135 9.519 76.135 8.049C76.135 6.579 76.38 5.319 76.87 4.269C77.374 3.205 78.067 2.393 78.949 1.833C79.845 1.259 80.867 0.971999 82.015 0.971999C83.177 0.971999 84.199 1.259 85.081 1.833C85.963 2.393 86.656 3.205 87.16 4.269C87.664 5.319 87.916 6.579 87.916 8.049C87.916 9.519 87.664 10.793 87.16 11.871C86.656 12.949 85.963 13.782 85.081 14.37C84.199 14.958 83.177 15.252 82.015 15.252ZM82.015 13.719C82.841 13.719 83.555 13.488 84.157 13.026C84.773 12.55 85.249 11.892 85.585 11.052C85.921 10.198 86.089 9.197 86.089 8.049C86.089 6.341 85.718 4.99 84.976 3.996C84.234 3.002 83.247 2.505 82.015 2.505C80.783 2.505 79.796 3.002 79.054 3.996C78.312 4.99 77.941 6.341 77.941 8.049C77.941 9.197 78.109 10.198 78.445 11.052C78.781 11.892 79.257 12.55 79.873 13.026C80.489 13.488 81.203 13.719 82.015 13.719ZM90.7943 5.949L90.3113 5.151C90.8433 4.801 91.2353 4.43 91.4873 4.038C91.7533 3.632 91.8863 3.128 91.8863 2.526C91.8443 2.54 91.7883 2.547 91.7183 2.547C91.4243 2.547 91.1653 2.456 90.9413 2.274C90.7173 2.092 90.6053 1.833 90.6053 1.497C90.6053 1.133 90.7103 0.845999 90.9203 0.636C91.1303 0.425999 91.3963 0.320999 91.7183 0.320999C92.1243 0.320999 92.4463 0.488999 92.6843 0.825C92.9223 1.147 93.0413 1.616 93.0413 2.232C93.0413 3.072 92.8453 3.8 92.4533 4.416C92.0753 5.018 91.5223 5.529 90.7943 5.949ZM96.1078 15V1.224H97.9138L102.891 9.876L104.382 12.732H104.466C104.424 12.032 104.375 11.311 104.319 10.569C104.277 9.813 104.256 9.071 104.256 8.343V1.224H105.915V15H104.109L99.1108 6.327L97.6198 3.492H97.5358C97.5918 4.178 97.6408 4.885 97.6828 5.613C97.7388 6.341 97.7668 7.069 97.7668 7.797V15H96.1078ZM109.704 15V1.224H117.642V2.694H111.447V7.02H116.676V8.511H111.447V13.509H117.852V15H109.704ZM120.779 15V1.224H122.522V15H120.779ZM126.295 15V1.224H128.038V13.509H134.065V15H126.295ZM136.508 15V1.224H138.251V13.509H144.278V15H136.508Z" fill="#040404"/>
</svg>
